<svg width="44" height="44" viewBox="0 0 44 44" fill="none" xmlns="http://www.w3.org/2000/svg">
<g filter="url(#filter0_b_1_12)">
<path d="M0 5.5C0 2.46243 2.46243 0 5.5 0H38.5C41.5376 0 44 2.46243 44 5.5V38.5C44 41.5376 41.5376 44 38.5 44H5.5C2.46243 44 0 41.5376 0 38.5V5.5Z" fill="#FF0000"/>
</g>
<path d="M22.5726 31.7137C22.5725 31.2572 22.6258 30.8011 22.7323 30.3456C22.8519 29.873 23.0148 29.3262 23.221 28.7052C23.2519 28.5945 23.3445 28.2625 23.4989 27.7093C23.6703 27.1689 23.7709 26.6685 23.8007 26.208C22.6163 25.5443 21.6852 24.9533 21.0072 24.4351C20.6344 24.1501 20.2256 23.8242 19.7809 23.4574C19.3662 23.0867 19.0486 22.8171 18.8283 22.6487C18.0327 21.9331 17.3807 21.3809 16.8722 20.9923C16.4615 21.108 16.0633 21.2601 15.6776 21.4485C15.3088 21.65 14.781 21.9716 14.0943 22.4133C13.1155 23.0614 12.3734 23.4877 11.868 23.6921C11.5212 23.8298 11.1274 23.7302 10.6867 23.3933C10.3139 23.1083 10.0247 22.7664 9.8193 22.3677C9.64378 21.965 9.66614 21.6196 9.88639 21.3315C10.5143 20.7911 11.2444 20.2751 12.0767 19.7835C12.9388 19.2879 14.1095 18.6522 15.5887 17.8764L18.5101 16.1623C20.1577 15.1661 21.599 14.3345 22.834 13.6674C24.0859 13.0132 25.6244 12.2828 27.4494 11.476C27.7066 11.3503 28.0056 11.3104 28.3466 11.3562C28.7004 11.385 29.0215 11.5096 29.3096 11.7298C29.6316 11.976 29.841 12.1763 29.9377 12.3308C30.0643 12.4813 30.1311 12.6398 30.1381 12.8063C30.1581 12.9558 30.1427 13.2394 30.092 13.6571C29.9815 14.9959 29.767 16.2953 29.4482 17.5553C29.1464 18.8284 28.6762 20.55 28.0376 22.7202L27.5415 24.4758C27.0833 26.0588 26.7062 27.3952 26.4103 28.4848C26.1444 29.5704 25.9642 30.6141 25.8696 31.616C25.804 32.2639 25.7063 32.6726 25.5768 32.8421C25.2659 33.2489 24.8991 33.4653 24.4764 33.4913C24.0836 33.5133 23.6924 33.3753 23.3025 33.0773C22.811 32.7016 22.5677 32.2471 22.5726 31.7137ZM24.657 23.5597C24.8263 22.7762 25.2009 21.4782 25.7807 19.6658C26.4213 17.7388 26.8223 16.1254 26.9835 14.8255C26.0396 15.3928 24.7618 16.0809 23.15 16.8896C22.1174 17.3623 20.7534 18.1456 19.0579 19.2394C20.039 20.2042 21.1566 21.1659 22.4109 22.1247C23.3091 22.8113 24.0578 23.2897 24.657 23.5597Z" fill="white"/>
<defs>
<filter id="filter0_b_1_12" x="-4" y="-4" width="52" height="52" filterUnits="userSpaceOnUse" color-interpolation-filters="sRGB">
<feFlood flood-opacity="0" result="BackgroundImageFix"/>
<feGaussianBlur in="BackgroundImageFix" stdDeviation="2"/>
<feComposite in2="SourceAlpha" operator="in" result="effect1_backgroundBlur_1_12"/>
<feBlend mode="normal" in="SourceGraphic" in2="effect1_backgroundBlur_1_12" result="shape"/>
</filter>
</defs>
</svg>
